<svg width="22" height="34" viewBox="0 0 22 34" fill="none" xmlns="http://www.w3.org/2000/svg">
<g id="app-2">
<circle id="Oval" cx="11.5" cy="27.5" r="1.5" fill="white"/>
<path id="Path" d="M8.80452 13.0052L6.13807 10.2053C5.87743 9.93158 5.45613 9.93158 5.19548 10.2053C4.93484 10.479 4.93484 10.9214 5.19548 11.195L7.39063 13.5001L5.19548 15.8051C4.93484 16.0788 4.93484 16.5212 5.19548 16.7949C5.32547 16.9314 5.49613 17 5.66678 17C5.83743 17 6.00808 16.9314 6.13807 16.7949L8.80452 13.995C9.06516 13.7213 9.06516 13.2789 8.80452 13.0052Z" fill="white"/>
<path id="Path_2" d="M16.3 16H10.7C10.3136 16 10 16.224 10 16.5C10 16.776 10.3136 17 10.7 17H16.3C16.6864 17 17 16.776 17 16.5C17 16.224 16.6864 16 16.3 16Z" fill="white"/>
<path id="Path_3" d="M17.25 12H12.75C12.336 12 12 12.224 12 12.5C12 12.776 12.336 13 12.75 13H17.25C17.664 13 18 12.776 18 12.5C18 12.224 17.664 12 17.25 12Z" fill="white"/>
<path id="Path_4" d="M17.2778 21H5.72222C5.32356 21 5 21.224 5 21.5C5 21.776 5.32356 22 5.72222 22H17.2778C17.6764 22 18 21.776 18 21.5C18 21.224 17.6764 21 17.2778 21Z" fill="white"/>
<path id="Shape" fill-rule="evenodd" clip-rule="evenodd" d="M18.3304 0H3.66667H3.66593C2.68693 0 1.7666 0.384348 1.07433 1.08209C0.382067 1.77983 0 2.70891 0 3.69565V5.17243V5.17391V5.17539V30.3043C0 32.3421 1.64487 34 3.66667 34H18.3333C20.3551 34 22 32.3421 22 30.3043V3.69565C22 1.65787 20.3551 0 18.3304 0ZM1.46667 3.69565C1.46667 3.10361 1.69547 2.5463 2.11127 2.12796C2.52633 1.70961 3.07853 1.47826 3.66593 1.47826H10.9993C15.8789 1.47826 17.6411 1.47826 18.3326 1.42135V1.47826C19.5455 1.47826 20.5326 2.47313 20.5326 3.69565V4.43478H1.46667V3.69565ZM18.3333 32.5217C19.5463 32.5217 20.5333 31.5269 20.5333 30.3043V5.91304H1.46667V30.3043C1.46667 31.5269 2.45373 32.5217 3.66667 32.5217H18.3333Z" fill="white"/>
</g>
</svg>
