<svg width="189" height="15" viewBox="0 0 189 15" fill="none" xmlns="http://www.w3.org/2000/svg">
<g id="Group">
<path id="16%" d="M24.432 3.6V12H22.872V4.908H21.096V3.6H24.432ZM29.9143 6.816C30.4663 6.816 30.9623 6.924 31.4023 7.14C31.8423 7.348 32.1863 7.648 32.4343 8.04C32.6823 8.432 32.8063 8.884 32.8063 9.396C32.8063 9.94 32.6703 10.42 32.3983 10.836C32.1263 11.244 31.7583 11.56 31.2943 11.784C30.8303 12.008 30.3103 12.12 29.7343 12.12C28.5823 12.12 27.6863 11.76 27.0463 11.04C26.4143 10.32 26.0983 9.288 26.0983 7.944C26.0983 7 26.2703 6.196 26.6143 5.532C26.9583 4.86 27.4383 4.352 28.0543 4.008C28.6783 3.656 29.3983 3.48 30.2143 3.48C30.6463 3.48 31.0503 3.528 31.4263 3.624C31.8103 3.712 32.1423 3.844 32.4223 4.02L31.8463 5.196C31.4303 4.924 30.8983 4.788 30.2503 4.788C29.4423 4.788 28.8103 5.036 28.3543 5.532C27.8983 6.028 27.6703 6.744 27.6703 7.68V7.692C27.9183 7.404 28.2343 7.188 28.6183 7.044C29.0023 6.892 29.4343 6.816 29.9143 6.816ZM29.6503 10.896C30.1383 10.896 30.5343 10.768 30.8383 10.512C31.1423 10.248 31.2943 9.9 31.2943 9.468C31.2943 9.028 31.1423 8.68 30.8383 8.424C30.5343 8.168 30.1263 8.04 29.6143 8.04C29.1103 8.04 28.6983 8.176 28.3783 8.448C28.0663 8.72 27.9103 9.064 27.9103 9.48C27.9103 9.888 28.0623 10.228 28.3663 10.5C28.6783 10.764 29.1063 10.896 29.6503 10.896ZM35.2594 8.124C34.6594 8.124 34.1754 7.912 33.8074 7.488C33.4394 7.064 33.2554 6.508 33.2554 5.82C33.2554 5.132 33.4394 4.576 33.8074 4.152C34.1754 3.728 34.6594 3.516 35.2594 3.516C35.8594 3.516 36.3434 3.728 36.7114 4.152C37.0874 4.568 37.2754 5.124 37.2754 5.82C37.2754 6.516 37.0874 7.076 36.7114 7.5C36.3434 7.916 35.8594 8.124 35.2594 8.124ZM40.2994 3.6H41.4754L35.7394 12H34.5634L40.2994 3.6ZM35.2594 7.284C35.5874 7.284 35.8394 7.156 36.0154 6.9C36.1994 6.644 36.2914 6.284 36.2914 5.82C36.2914 5.356 36.1994 4.996 36.0154 4.74C35.8394 4.484 35.5874 4.356 35.2594 4.356C34.9474 4.356 34.6954 4.488 34.5034 4.752C34.3194 5.008 34.2274 5.364 34.2274 5.82C34.2274 6.276 34.3194 6.636 34.5034 6.9C34.6954 7.156 34.9474 7.284 35.2594 7.284ZM40.7674 12.084C40.1674 12.084 39.6834 11.872 39.3154 11.448C38.9474 11.024 38.7634 10.468 38.7634 9.78C38.7634 9.092 38.9474 8.536 39.3154 8.112C39.6834 7.688 40.1674 7.476 40.7674 7.476C41.3674 7.476 41.8514 7.688 42.2194 8.112C42.5954 8.536 42.7834 9.092 42.7834 9.78C42.7834 10.468 42.5954 11.024 42.2194 11.448C41.8514 11.872 41.3674 12.084 40.7674 12.084ZM40.7674 11.244C41.0874 11.244 41.3394 11.116 41.5234 10.86C41.7074 10.596 41.7994 10.236 41.7994 9.78C41.7994 9.324 41.7074 8.968 41.5234 8.712C41.3394 8.448 41.0874 8.316 40.7674 8.316C40.4474 8.316 40.1954 8.444 40.0114 8.7C39.8274 8.956 39.7354 9.316 39.7354 9.78C39.7354 10.244 39.8274 10.604 40.0114 10.86C40.1954 11.116 40.4474 11.244 40.7674 11.244Z" fill="#47B881"/>
<path id="Desde o &#195;&#186;ltimo m&#195;&#170;s" d="M57.26 3.6H60.8C61.688 3.6 62.476 3.776 63.164 4.128C63.852 4.48 64.384 4.976 64.76 5.616C65.144 6.248 65.336 6.976 65.336 7.8C65.336 8.624 65.144 9.356 64.76 9.996C64.384 10.628 63.852 11.12 63.164 11.472C62.476 11.824 61.688 12 60.8 12H57.26V3.6ZM60.728 10.956C61.408 10.956 62.004 10.824 62.516 10.56C63.036 10.296 63.436 9.928 63.716 9.456C63.996 8.976 64.136 8.424 64.136 7.8C64.136 7.176 63.996 6.628 63.716 6.156C63.436 5.676 63.036 5.304 62.516 5.04C62.004 4.776 61.408 4.644 60.728 4.644H58.46V10.956H60.728ZM72.7541 8.856C72.7541 8.944 72.7461 9.06 72.7301 9.204H67.5701C67.6421 9.764 67.8861 10.216 68.3021 10.56C68.7261 10.896 69.2501 11.064 69.8741 11.064C70.6341 11.064 71.2461 10.808 71.7101 10.296L72.3461 11.04C72.0581 11.376 71.6981 11.632 71.2661 11.808C70.8421 11.984 70.3661 12.072 69.8381 12.072C69.1661 12.072 68.5701 11.936 68.0501 11.664C67.5301 11.384 67.1261 10.996 66.8381 10.5C66.5581 10.004 66.4181 9.444 66.4181 8.82C66.4181 8.204 66.5541 7.648 66.8261 7.152C67.1061 6.656 67.4861 6.272 67.9661 6C68.4541 5.72 69.0021 5.58 69.6101 5.58C70.2181 5.58 70.7581 5.72 71.2301 6C71.7101 6.272 72.0821 6.656 72.3461 7.152C72.6181 7.648 72.7541 8.216 72.7541 8.856ZM69.6101 6.552C69.0581 6.552 68.5941 6.72 68.2181 7.056C67.8501 7.392 67.6341 7.832 67.5701 8.376H71.6501C71.5861 7.84 71.3661 7.404 70.9901 7.068C70.6221 6.724 70.1621 6.552 69.6101 6.552ZM76.1777 12.072C75.6577 12.072 75.1577 12.004 74.6777 11.868C74.1977 11.724 73.8217 11.544 73.5497 11.328L74.0297 10.416C74.3097 10.616 74.6497 10.776 75.0497 10.896C75.4497 11.016 75.8537 11.076 76.2617 11.076C77.2697 11.076 77.7737 10.788 77.7737 10.212C77.7737 10.02 77.7057 9.868 77.5697 9.756C77.4337 9.644 77.2617 9.564 77.0537 9.516C76.8537 9.46 76.5657 9.4 76.1897 9.336C75.6777 9.256 75.2577 9.164 74.9297 9.06C74.6097 8.956 74.3337 8.78 74.1017 8.532C73.8697 8.284 73.7537 7.936 73.7537 7.488C73.7537 6.912 73.9937 6.452 74.4737 6.108C74.9537 5.756 75.5977 5.58 76.4057 5.58C76.8297 5.58 77.2537 5.632 77.6777 5.736C78.1017 5.84 78.4497 5.98 78.7217 6.156L78.2297 7.068C77.7097 6.732 77.0977 6.564 76.3937 6.564C75.9057 6.564 75.5337 6.644 75.2777 6.804C75.0217 6.964 74.8937 7.176 74.8937 7.44C74.8937 7.648 74.9657 7.812 75.1097 7.932C75.2537 8.052 75.4297 8.14 75.6377 8.196C75.8537 8.252 76.1537 8.316 76.5377 8.388C77.0497 8.476 77.4617 8.572 77.7737 8.676C78.0937 8.772 78.3657 8.94 78.5897 9.18C78.8137 9.42 78.9257 9.756 78.9257 10.188C78.9257 10.764 78.6777 11.224 78.1817 11.568C77.6937 11.904 77.0257 12.072 76.1777 12.072ZM86.3654 3.096V12H85.2614V10.992C85.0054 11.344 84.6814 11.612 84.2894 11.796C83.8974 11.98 83.4654 12.072 82.9934 12.072C82.3774 12.072 81.8254 11.936 81.3374 11.664C80.8494 11.392 80.4654 11.012 80.1854 10.524C79.9134 10.028 79.7774 9.46 79.7774 8.82C79.7774 8.18 79.9134 7.616 80.1854 7.128C80.4654 6.64 80.8494 6.26 81.3374 5.988C81.8254 5.716 82.3774 5.58 82.9934 5.58C83.4494 5.58 83.8694 5.668 84.2534 5.844C84.6374 6.012 84.9574 6.264 85.2134 6.6V3.096H86.3654ZM83.0894 11.064C83.4894 11.064 83.8534 10.972 84.1814 10.788C84.5094 10.596 84.7654 10.332 84.9494 9.996C85.1334 9.652 85.2254 9.26 85.2254 8.82C85.2254 8.38 85.1334 7.992 84.9494 7.656C84.7654 7.312 84.5094 7.048 84.1814 6.864C83.8534 6.68 83.4894 6.588 83.0894 6.588C82.6814 6.588 82.3134 6.68 81.9854 6.864C81.6654 7.048 81.4094 7.312 81.2174 7.656C81.0334 7.992 80.9414 8.38 80.9414 8.82C80.9414 9.26 81.0334 9.652 81.2174 9.996C81.4094 10.332 81.6654 10.596 81.9854 10.788C82.3134 10.972 82.6814 11.064 83.0894 11.064ZM94.2931 8.856C94.2931 8.944 94.2851 9.06 94.2691 9.204H89.1091C89.1811 9.764 89.4251 10.216 89.8411 10.56C90.2651 10.896 90.7891 11.064 91.4131 11.064C92.1731 11.064 92.7851 10.808 93.2491 10.296L93.8851 11.04C93.5971 11.376 93.2371 11.632 92.8051 11.808C92.3811 11.984 91.9051 12.072 91.3771 12.072C90.7051 12.072 90.1091 11.936 89.5891 11.664C89.0691 11.384 88.6651 10.996 88.3771 10.5C88.0971 10.004 87.9571 9.444 87.9571 8.82C87.9571 8.204 88.0931 7.648 88.3651 7.152C88.6451 6.656 89.0251 6.272 89.5051 6C89.9931 5.72 90.5411 5.58 91.1491 5.58C91.7571 5.58 92.2971 5.72 92.7691 6C93.2491 6.272 93.6211 6.656 93.8851 7.152C94.1571 7.648 94.2931 8.216 94.2931 8.856ZM91.1491 6.552C90.5971 6.552 90.1331 6.72 89.7571 7.056C89.3891 7.392 89.1731 7.832 89.1091 8.376H93.1891C93.1251 7.84 92.9051 7.404 92.5291 7.068C92.1611 6.724 91.7011 6.552 91.1491 6.552ZM101.839 12.072C101.207 12.072 100.639 11.932 100.135 11.652C99.6314 11.372 99.2354 10.988 98.9474 10.5C98.6674 10.004 98.5274 9.444 98.5274 8.82C98.5274 8.196 98.6674 7.64 98.9474 7.152C99.2354 6.656 99.6314 6.272 100.135 6C100.639 5.72 101.207 5.58 101.839 5.58C102.471 5.58 103.035 5.72 103.531 6C104.035 6.272 104.427 6.656 104.707 7.152C104.995 7.64 105.139 8.196 105.139 8.82C105.139 9.444 104.995 10.004 104.707 10.5C104.427 10.988 104.035 11.372 103.531 11.652C103.035 11.932 102.471 12.072 101.839 12.072ZM101.839 11.064C102.247 11.064 102.611 10.972 102.931 10.788C103.259 10.596 103.515 10.332 103.699 9.996C103.883 9.652 103.975 9.26 103.975 8.82C103.975 8.38 103.883 7.992 103.699 7.656C103.515 7.312 103.259 7.048 102.931 6.864C102.611 6.68 102.247 6.588 101.839 6.588C101.431 6.588 101.063 6.68 100.735 6.864C100.415 7.048 100.159 7.312 99.9674 7.656C99.7834 7.992 99.6914 8.38 99.6914 8.82C99.6914 9.26 99.7834 9.652 99.9674 9.996C100.159 10.332 100.415 10.596 100.735 10.788C101.063 10.972 101.431 11.064 101.839 11.064ZM115.883 5.64V12H114.791V11.04C114.559 11.368 114.251 11.624 113.867 11.808C113.491 11.984 113.079 12.072 112.631 12.072C111.783 12.072 111.115 11.84 110.627 11.376C110.139 10.904 109.895 10.212 109.895 9.3V5.64H111.047V9.168C111.047 9.784 111.195 10.252 111.491 10.572C111.787 10.884 112.211 11.04 112.763 11.04C113.371 11.04 113.851 10.856 114.203 10.488C114.555 10.12 114.731 9.6 114.731 8.928V5.64H115.883ZM113.627 3.156H115.091L113.075 4.716H111.995L113.627 3.156ZM118.076 3.096H119.228V12H118.076V3.096ZM125.156 11.628C124.988 11.772 124.78 11.884 124.532 11.964C124.284 12.036 124.028 12.072 123.764 12.072C123.124 12.072 122.628 11.9 122.276 11.556C121.924 11.212 121.748 10.72 121.748 10.08V6.588H120.668V5.64H121.748V4.248H122.9V5.64H124.724V6.588H122.9V10.032C122.9 10.376 122.984 10.64 123.152 10.824C123.328 11.008 123.576 11.1 123.896 11.1C124.248 11.1 124.548 11 124.796 10.8L125.156 11.628ZM126.549 5.64H127.701V12H126.549V5.64ZM127.125 4.416C126.901 4.416 126.713 4.344 126.561 4.2C126.417 4.056 126.345 3.88 126.345 3.672C126.345 3.464 126.417 3.288 126.561 3.144C126.713 2.992 126.901 2.916 127.125 2.916C127.349 2.916 127.533 2.988 127.677 3.132C127.829 3.268 127.905 3.44 127.905 3.648C127.905 3.864 127.829 4.048 127.677 4.2C127.533 4.344 127.349 4.416 127.125 4.416ZM137.857 5.58C138.657 5.58 139.289 5.812 139.753 6.276C140.225 6.74 140.461 7.428 140.461 8.34V12H139.309V8.472C139.309 7.856 139.165 7.392 138.877 7.08C138.597 6.768 138.193 6.612 137.665 6.612C137.081 6.612 136.617 6.796 136.273 7.164C135.929 7.524 135.757 8.044 135.757 8.724V12H134.605V8.472C134.605 7.856 134.461 7.392 134.173 7.08C133.893 6.768 133.489 6.612 132.961 6.612C132.377 6.612 131.913 6.796 131.569 7.164C131.225 7.524 131.053 8.044 131.053 8.724V12H129.901V5.64H131.005V6.588C131.237 6.26 131.541 6.012 131.917 5.844C132.293 5.668 132.721 5.58 133.201 5.58C133.697 5.58 134.137 5.68 134.521 5.88C134.905 6.08 135.201 6.372 135.409 6.756C135.649 6.388 135.981 6.1 136.405 5.892C136.837 5.684 137.321 5.58 137.857 5.58ZM145.339 12.072C144.707 12.072 144.139 11.932 143.635 11.652C143.131 11.372 142.735 10.988 142.447 10.5C142.167 10.004 142.027 9.444 142.027 8.82C142.027 8.196 142.167 7.64 142.447 7.152C142.735 6.656 143.131 6.272 143.635 6C144.139 5.72 144.707 5.58 145.339 5.58C145.971 5.58 146.535 5.72 147.031 6C147.535 6.272 147.927 6.656 148.207 7.152C148.495 7.64 148.639 8.196 148.639 8.82C148.639 9.444 148.495 10.004 148.207 10.5C147.927 10.988 147.535 11.372 147.031 11.652C146.535 11.932 145.971 12.072 145.339 12.072ZM145.339 11.064C145.747 11.064 146.111 10.972 146.431 10.788C146.759 10.596 147.015 10.332 147.199 9.996C147.383 9.652 147.475 9.26 147.475 8.82C147.475 8.38 147.383 7.992 147.199 7.656C147.015 7.312 146.759 7.048 146.431 6.864C146.111 6.68 145.747 6.588 145.339 6.588C144.931 6.588 144.563 6.68 144.235 6.864C143.915 7.048 143.659 7.312 143.467 7.656C143.283 7.992 143.191 8.38 143.191 8.82C143.191 9.26 143.283 9.652 143.467 9.996C143.659 10.332 143.915 10.596 144.235 10.788C144.563 10.972 144.931 11.064 145.339 11.064ZM161.411 5.58C162.211 5.58 162.843 5.812 163.307 6.276C163.779 6.74 164.015 7.428 164.015 8.34V12H162.863V8.472C162.863 7.856 162.719 7.392 162.431 7.08C162.151 6.768 161.747 6.612 161.219 6.612C160.635 6.612 160.171 6.796 159.827 7.164C159.483 7.524 159.311 8.044 159.311 8.724V12H158.159V8.472C158.159 7.856 158.015 7.392 157.727 7.08C157.447 6.768 157.043 6.612 156.515 6.612C155.931 6.612 155.467 6.796 155.123 7.164C154.779 7.524 154.607 8.044 154.607 8.724V12H153.455V5.64H154.559V6.588C154.791 6.26 155.095 6.012 155.471 5.844C155.847 5.668 156.275 5.58 156.755 5.58C157.251 5.58 157.691 5.68 158.075 5.88C158.459 6.08 158.755 6.372 158.963 6.756C159.203 6.388 159.535 6.1 159.959 5.892C160.391 5.684 160.875 5.58 161.411 5.58ZM171.918 8.856C171.918 8.944 171.91 9.06 171.894 9.204H166.734C166.806 9.764 167.05 10.216 167.466 10.56C167.89 10.896 168.414 11.064 169.038 11.064C169.798 11.064 170.41 10.808 170.874 10.296L171.51 11.04C171.222 11.376 170.862 11.632 170.43 11.808C170.006 11.984 169.53 12.072 169.002 12.072C168.33 12.072 167.734 11.936 167.214 11.664C166.694 11.384 166.29 10.996 166.002 10.5C165.722 10.004 165.582 9.444 165.582 8.82C165.582 8.204 165.718 7.648 165.99 7.152C166.27 6.656 166.65 6.272 167.13 6C167.618 5.72 168.166 5.58 168.774 5.58C169.382 5.58 169.922 5.72 170.394 6C170.874 6.272 171.246 6.656 171.51 7.152C171.782 7.648 171.918 8.216 171.918 8.856ZM168.774 6.552C168.222 6.552 167.758 6.72 167.382 7.056C167.014 7.392 166.798 7.832 166.734 8.376H170.814C170.75 7.84 170.53 7.404 170.154 7.068C169.786 6.724 169.326 6.552 168.774 6.552ZM169.866 4.716L168.762 3.792L167.658 4.716H166.614L168.21 3.156H169.314L170.91 4.716H169.866ZM175.342 12.072C174.822 12.072 174.322 12.004 173.842 11.868C173.362 11.724 172.986 11.544 172.714 11.328L173.194 10.416C173.474 10.616 173.814 10.776 174.214 10.896C174.614 11.016 175.018 11.076 175.426 11.076C176.434 11.076 176.938 10.788 176.938 10.212C176.938 10.02 176.87 9.868 176.734 9.756C176.598 9.644 176.426 9.564 176.218 9.516C176.018 9.46 175.73 9.4 175.354 9.336C174.842 9.256 174.422 9.164 174.094 9.06C173.774 8.956 173.498 8.78 173.266 8.532C173.034 8.284 172.918 7.936 172.918 7.488C172.918 6.912 173.158 6.452 173.638 6.108C174.118 5.756 174.762 5.58 175.57 5.58C175.994 5.58 176.418 5.632 176.842 5.736C177.266 5.84 177.614 5.98 177.886 6.156L177.394 7.068C176.874 6.732 176.262 6.564 175.558 6.564C175.07 6.564 174.698 6.644 174.442 6.804C174.186 6.964 174.058 7.176 174.058 7.44C174.058 7.648 174.13 7.812 174.274 7.932C174.418 8.052 174.594 8.14 174.802 8.196C175.018 8.252 175.318 8.316 175.702 8.388C176.214 8.476 176.626 8.572 176.938 8.676C177.258 8.772 177.53 8.94 177.754 9.18C177.978 9.42 178.09 9.756 178.09 10.188C178.09 10.764 177.842 11.224 177.346 11.568C176.858 11.904 176.19 12.072 175.342 12.072Z" fill="#66788A"/>
<g id="ic_arrow_drop_down_24px">
<path id="Path" d="M12 12L6.52918 6L1.05836 12L12 12Z" fill="#47B881"/>
<mask id="mask0" mask-type="alpha" maskUnits="userSpaceOnUse" x="1" y="6" width="11" height="6">
<path id="Path_2" d="M12 12L6.52918 6L1.05836 12L12 12Z" fill="white"/>
</mask>
<g mask="url(#mask0)">
<g id="&#240;&#159;&#142;&#168; Color">
<rect id="Shape" x="19.6592" y="24" width="26.2599" height="28.8" transform="rotate(-180 19.6592 24)" fill="#47B881"/>
</g>
</g>
</g>
</g>
</svg>
