<svg width="167" height="14" viewBox="0 0 167 14" fill="none" xmlns="http://www.w3.org/2000/svg">
<path id="Portlet Title" d="M7.528 9.2H3.628L2.884 11H0.892L4.636 2.6H6.556L10.312 11H8.272L7.528 9.2ZM6.916 7.724L5.584 4.508L4.252 7.724H6.916ZM18.8025 2.6L15.1665 11H13.2465L9.62247 2.6H11.7225L14.2785 8.6L16.8705 2.6H18.8025ZM24.7546 9.2H20.8546L20.1106 11H18.1186L21.8626 2.6H23.7826L27.5386 11H25.4986L24.7546 9.2ZM24.1426 7.724L22.8106 4.508L21.4786 7.724H24.1426ZM28.4101 2.6H30.3541V9.416H34.5661V11H28.4101V2.6ZM35.6523 2.6H37.5963V11H35.6523V2.6ZM45.1218 9.2H41.2218L40.4778 11H38.4857L42.2298 2.6H44.1498L47.9058 11H45.8658L45.1218 9.2ZM44.5098 7.724L43.1778 4.508L41.8458 7.724H44.5098ZM52.6801 11.144C51.8241 11.144 51.0481 10.96 50.3521 10.592C49.6641 10.216 49.1201 9.7 48.7201 9.044C48.3281 8.38 48.1321 7.632 48.1321 6.8C48.1321 5.968 48.3281 5.224 48.7201 4.568C49.1201 3.904 49.6641 3.388 50.3521 3.02C51.0481 2.644 51.8281 2.456 52.6921 2.456C53.4201 2.456 54.0761 2.584 54.6601 2.84C55.2521 3.096 55.7481 3.464 56.1481 3.944L54.9001 5.096C54.3321 4.44 53.6281 4.112 52.7881 4.112C52.2681 4.112 51.8041 4.228 51.3961 4.46C50.9881 4.684 50.6681 5 50.4361 5.408C50.2121 5.816 50.1001 6.28 50.1001 6.8C50.1001 7.32 50.2121 7.784 50.4361 8.192C50.6681 8.6 50.9881 8.92 51.3961 9.152C51.8041 9.376 52.2681 9.488 52.7881 9.488C53.6281 9.488 54.3321 9.156 54.9001 8.492L56.1481 9.644C55.7481 10.132 55.2521 10.504 54.6601 10.76C54.0681 11.016 53.4081 11.144 52.6801 11.144ZM52.0321 13.784C51.8241 13.784 51.6201 13.76 51.4201 13.712C51.2201 13.672 51.0521 13.612 50.9161 13.532L51.2041 12.728C51.4601 12.848 51.7201 12.908 51.9841 12.908C52.4001 12.908 52.6081 12.78 52.6081 12.524C52.6081 12.292 52.4121 12.176 52.0201 12.176H51.6121L51.9241 10.904H52.9201L52.7521 11.6C53.1041 11.64 53.3641 11.748 53.5321 11.924C53.7081 12.108 53.7961 12.332 53.7961 12.596C53.7961 12.964 53.6361 13.252 53.3161 13.46C52.9961 13.676 52.5681 13.784 52.0321 13.784ZM61.3531 11.144C60.4811 11.144 59.6931 10.956 58.9891 10.58C58.2931 10.204 57.7451 9.688 57.3451 9.032C56.9531 8.368 56.7571 7.624 56.7571 6.8C56.7571 5.976 56.9531 5.236 57.3451 4.58C57.7451 3.916 58.2931 3.396 58.9891 3.02C59.6931 2.644 60.4811 2.456 61.3531 2.456C62.2251 2.456 63.0091 2.644 63.7051 3.02C64.4011 3.396 64.9491 3.916 65.3491 4.58C65.7491 5.236 65.9491 5.976 65.9491 6.8C65.9491 7.624 65.7491 8.368 65.3491 9.032C64.9491 9.688 64.4011 10.204 63.7051 10.58C63.0091 10.956 62.2251 11.144 61.3531 11.144ZM61.3531 9.488C61.8491 9.488 62.2971 9.376 62.6971 9.152C63.0971 8.92 63.4091 8.6 63.6331 8.192C63.8651 7.784 63.9811 7.32 63.9811 6.8C63.9811 6.28 63.8651 5.816 63.6331 5.408C63.4091 5 63.0971 4.684 62.6971 4.46C62.2971 4.228 61.8491 4.112 61.3531 4.112C60.8571 4.112 60.4091 4.228 60.0091 4.46C59.6091 4.684 59.2931 5 59.0611 5.408C58.8371 5.816 58.7251 6.28 58.7251 6.8C58.7251 7.32 58.8371 7.784 59.0611 8.192C59.2931 8.6 59.6091 8.92 60.0091 9.152C60.4091 9.376 60.8571 9.488 61.3531 9.488ZM62.2531 1.952C62.0371 1.952 61.8451 1.912 61.6771 1.832C61.5171 1.744 61.3371 1.628 61.1371 1.484C61.0091 1.388 60.9011 1.316 60.8131 1.268C60.7331 1.22 60.6531 1.196 60.5731 1.196C60.4051 1.196 60.2691 1.256 60.1651 1.376C60.0611 1.488 60.0051 1.652 59.9971 1.868H59.0491C59.0651 1.332 59.1971 0.907999 59.4451 0.595999C59.7011 0.275999 60.0371 0.115999 60.4531 0.115999C60.6611 0.115999 60.8451 0.159999 61.0051 0.248C61.1731 0.328 61.3611 0.444 61.5691 0.595999C61.6971 0.692 61.8011 0.764 61.8811 0.812C61.9691 0.859999 62.0531 0.883999 62.1331 0.883999C62.2931 0.883999 62.4251 0.827999 62.5291 0.715999C62.6411 0.595999 62.7011 0.436 62.7091 0.236H63.6571C63.6411 0.756 63.5051 1.172 63.2491 1.484C63.0011 1.796 62.6691 1.952 62.2531 1.952ZM73.9141 9.44V11H67.4101V2.6H73.7581V4.16H69.3421V5.984H73.2421V7.496H69.3421V9.44H73.9141ZM78.2208 11.144C77.5568 11.144 76.9128 11.056 76.2888 10.88C75.6728 10.696 75.1768 10.46 74.8008 10.172L75.4608 8.708C75.8208 8.972 76.2488 9.184 76.7448 9.344C77.2408 9.504 77.7368 9.584 78.2328 9.584C78.7848 9.584 79.1928 9.504 79.4568 9.344C79.7208 9.176 79.8528 8.956 79.8528 8.684C79.8528 8.484 79.7728 8.32 79.6128 8.192C79.4608 8.056 79.2608 7.948 79.0128 7.868C78.7728 7.788 78.4448 7.7 78.0288 7.604C77.3888 7.452 76.8648 7.3 76.4568 7.148C76.0488 6.996 75.6968 6.752 75.4008 6.416C75.1128 6.08 74.9688 5.632 74.9688 5.072C74.9688 4.584 75.1008 4.144 75.3648 3.752C75.6288 3.352 76.0248 3.036 76.5528 2.804C77.0888 2.572 77.7408 2.456 78.5088 2.456C79.0448 2.456 79.5688 2.52 80.0808 2.648C80.5928 2.776 81.0408 2.96 81.4248 3.2L80.8248 4.676C80.0488 4.236 79.2728 4.016 78.4968 4.016C77.9528 4.016 77.5488 4.104 77.2848 4.28C77.0288 4.456 76.9008 4.688 76.9008 4.976C76.9008 5.264 77.0488 5.48 77.3448 5.624C77.6488 5.76 78.1088 5.896 78.7248 6.032C79.3648 6.184 79.8888 6.336 80.2968 6.488C80.7048 6.64 81.0528 6.88 81.3408 7.208C81.6368 7.536 81.7848 7.98 81.7848 8.54C81.7848 9.02 81.6488 9.46 81.3768 9.86C81.1128 10.252 80.7128 10.564 80.1768 10.796C79.6408 11.028 78.9888 11.144 78.2208 11.144ZM92.0436 9.2H88.1436L87.3996 11H85.4076L89.1516 2.6H91.0716L94.8276 11H92.7876L92.0436 9.2ZM91.4316 7.724L90.0996 4.508L88.7676 7.724H91.4316ZM101.258 6.668H103.034V10.076C102.578 10.42 102.05 10.684 101.45 10.868C100.85 11.052 100.246 11.144 99.6379 11.144C98.7659 11.144 97.9819 10.96 97.2859 10.592C96.5899 10.216 96.0419 9.7 95.6419 9.044C95.2499 8.38 95.0539 7.632 95.0539 6.8C95.0539 5.968 95.2499 5.224 95.6419 4.568C96.0419 3.904 96.5939 3.388 97.2979 3.02C98.0019 2.644 98.7939 2.456 99.6739 2.456C100.41 2.456 101.078 2.58 101.678 2.828C102.278 3.076 102.782 3.436 103.19 3.908L101.942 5.06C101.342 4.428 100.618 4.112 99.7699 4.112C99.2339 4.112 98.7579 4.224 98.3419 4.448C97.9259 4.672 97.6019 4.988 97.3699 5.396C97.1379 5.804 97.0219 6.272 97.0219 6.8C97.0219 7.32 97.1379 7.784 97.3699 8.192C97.6019 8.6 97.9219 8.92 98.3299 9.152C98.7459 9.376 99.2179 9.488 99.7459 9.488C100.306 9.488 100.81 9.368 101.258 9.128V6.668ZM111.344 9.44V11H104.84V2.6H111.188V4.16H106.772V5.984H110.672V7.496H106.772V9.44H111.344ZM120.595 2.6V11H118.999L114.811 5.9V11H112.891V2.6H114.499L118.675 7.7V2.6H120.595ZM122.582 2.6H126.398C127.31 2.6 128.114 2.776 128.81 3.128C129.514 3.472 130.058 3.96 130.442 4.592C130.834 5.224 131.03 5.96 131.03 6.8C131.03 7.64 130.834 8.376 130.442 9.008C130.058 9.64 129.514 10.132 128.81 10.484C128.114 10.828 127.31 11 126.398 11H122.582V2.6ZM126.302 9.404C127.142 9.404 127.81 9.172 128.306 8.708C128.81 8.236 129.062 7.6 129.062 6.8C129.062 6 128.81 5.368 128.306 4.904C127.81 4.432 127.142 4.196 126.302 4.196H124.526V9.404H126.302ZM137.911 9.2H134.011L133.267 11H131.275L135.019 2.6H136.939L140.695 11H138.655L137.911 9.2ZM137.299 7.724L135.967 4.508L134.635 7.724H137.299ZM141.566 2.6H145.382C146.294 2.6 147.098 2.776 147.794 3.128C148.498 3.472 149.042 3.96 149.426 4.592C149.818 5.224 150.014 5.96 150.014 6.8C150.014 7.64 149.818 8.376 149.426 9.008C149.042 9.64 148.498 10.132 147.794 10.484C147.098 10.828 146.294 11 145.382 11H141.566V2.6ZM145.286 9.404C146.126 9.404 146.794 9.172 147.29 8.708C147.794 8.236 148.046 7.6 148.046 6.8C148.046 6 147.794 5.368 147.29 4.904C146.794 4.432 146.126 4.196 145.286 4.196H143.51V9.404H145.286ZM156.895 9.2H152.995L152.251 11H150.259L154.003 2.6H155.923L159.679 11H157.639L156.895 9.2ZM156.283 7.724L154.951 4.508L153.619 7.724H156.283ZM163.311 11.144C162.647 11.144 162.003 11.056 161.379 10.88C160.763 10.696 160.267 10.46 159.891 10.172L160.551 8.708C160.911 8.972 161.339 9.184 161.835 9.344C162.331 9.504 162.827 9.584 163.323 9.584C163.875 9.584 164.283 9.504 164.547 9.344C164.811 9.176 164.943 8.956 164.943 8.684C164.943 8.484 164.863 8.32 164.703 8.192C164.551 8.056 164.351 7.948 164.103 7.868C163.863 7.788 163.535 7.7 163.119 7.604C162.479 7.452 161.955 7.3 161.547 7.148C161.139 6.996 160.787 6.752 160.491 6.416C160.203 6.08 160.059 5.632 160.059 5.072C160.059 4.584 160.191 4.144 160.455 3.752C160.719 3.352 161.115 3.036 161.643 2.804C162.179 2.572 162.831 2.456 163.599 2.456C164.135 2.456 164.659 2.52 165.171 2.648C165.683 2.776 166.131 2.96 166.515 3.2L165.915 4.676C165.139 4.236 164.363 4.016 163.587 4.016C163.043 4.016 162.639 4.104 162.375 4.28C162.119 4.456 161.991 4.688 161.991 4.976C161.991 5.264 162.139 5.48 162.435 5.624C162.739 5.76 163.199 5.896 163.815 6.032C164.455 6.184 164.979 6.336 165.387 6.488C165.795 6.64 166.143 6.88 166.431 7.208C166.727 7.536 166.875 7.98 166.875 8.54C166.875 9.02 166.739 9.46 166.467 9.86C166.203 10.252 165.803 10.564 165.267 10.796C164.731 11.028 164.079 11.144 163.311 11.144Z" fill="#66788A"/>
</svg>
